<svg class="main-svg" xmlns="http://www.w3.org/2000/svg" xmlns:xlink="http://www.w3.org/1999/xlink" width="1200" height="800" style="" viewBox="0 0 1200 800"><rect x="0" y="0" width="1200" height="800" style="fill: rgb(255, 255, 255); fill-opacity: 1;"/><defs id="defs-42db8e"><g class="clips"/><g class="gradients"/><g class="patterns"/></defs><g class="bglayer"/><g class="layer-below"><g class="imagelayer"/><g class="shapelayer"/></g><g class="cartesianlayer"/><g class="polarlayer"/><g class="smithlayer"/><g class="ternarylayer"/><g class="geolayer"/><g class="funnelarealayer"/><g class="pielayer"/><g class="iciclelayer"/><g class="treemaplayer"/><g class="sunburstlayer"/><g class="glimages"/><g class="sankey" transform="translate(80,100)matrix(1 0 0 1 0 0)" style="box-sizing: content-box; position: absolute; left: 0px; shape-rendering: geometricprecision; pointer-events: none;"><g class="sankey-links" style="fill: none;"><path class="sankey-link" d="M 35.11015476289001 586.4440296305197  L 30.110154762890012 586.4440296305197 A 10.327518948405004 10.327518948405004 0 0 0 19.78263581448501 596.7715485789247 L 19.78263581448501 601.7715485789247 A 10.327518948405004 10.327518948405004 0 0 0 30.110154762890012 612.0990675273297 L 60.11015476289001 612.0990675273297 A 10.327518948405004 10.327518948405004 0 0 0 70.43767371129502 601.7715485789247 L 70.43767371129502 596.7715485789247 A 10.327518948405004 10.327518948405004 0 0 0 60.11015476289001 586.4440296305197 L 55.11015476289001 586.4440296305197 L 55.11015476289001 586.7715485789247 L 60.11015476289001 586.7715485789247 A 10 10 0 0 1 70.11015476289 596.7715485789247 L 70.11015476289 601.7715485789247 A 10 10 0 0 1 60.11015476289001 611.7715485789247 L 30.110154762890012 611.7715485789247 A 10 10 0 0 1 20.110154762890016 601.7715485789247 L 20.110154762890016 596.7715485789247 A 10 10 0 0 1 30.110154762890012 586.7715485789247 L 35.11015476289001 586.7715485789247Z" style="stroke: rgb(0, 0, 0); stroke-opacity: 0.2; fill: rgb(0, 0, 0); fill-opacity: 0.2; stroke-width: 1; opacity: 1;"/><path class="sankey-link" d="M55.11015476289001,0C537.555077381445,0 537.555077381445,0 1020,0L1020,539.3194974485496C537.555077381445,539.3194974485496 537.555077381445,539.3194974485496 55.11015476289001,539.3194974485496Z" style="stroke: rgb(68, 68, 68); stroke-opacity: 1; fill: rgb(0, 0, 0); fill-opacity: 0.2; stroke-width: 0; opacity: 1;"/></g><g class="sankey-node-set" style="cursor: move;"><g class="sankey-node" transform="translate(35.110,0.000)" style="opacity: 1;"><rect class="node-rect" width="20" height="539.3194974485496" style="stroke-width: 0.5; stroke: rgb(0, 0, 0); stroke-opacity: 1; fill: rgb(99, 110, 250); fill-opacity: 1;"/><text class="node-label" data-notex="1" x="0" y="0" text-anchor="start" transform="translate(23.25,273.85974872427477)" style="cursor: default; font-family: Arial; font-size: 12px; fill: rgb(42, 63, 95); fill-opacity: 1; text-shadow: rgb(255, 255, 255) 1px 1px 1px, rgb(255, 255, 255) -1px -1px 1px, rgb(255, 255, 255) 1px -1px 1px, rgb(255, 255, 255) -1px 1px 1px; white-space: pre;">Computer and Mathematical Occupations</text></g><g class="sankey-node" transform="translate(1020.000,0.000)" style="opacity: 1;"><rect class="node-rect" width="20" height="539.3194974485494" style="stroke-width: 0.5; stroke: rgb(0, 0, 0); stroke-opacity: 1; fill: rgb(99, 110, 250); fill-opacity: 1;"/><text class="node-label" data-notex="1" x="0" y="0" text-anchor="end" transform="translate(-3.25,273.8597487242747)" style="cursor: default; font-family: Arial; font-size: 12px; fill: rgb(42, 63, 95); fill-opacity: 1; text-shadow: rgb(255, 255, 255) 1px 1px 1px, rgb(255, 255, 255) -1px -1px 1px, rgb(255, 255, 255) 1px -1px 1px, rgb(255, 255, 255) -1px 1px 1px; white-space: pre;">Mathematical Science Occupations</text></g><g class="sankey-node" transform="translate(35.110,586.444)" style="opacity: 1;"><rect class="node-rect" width="20" height="0.5" style="stroke-width: 0.5; stroke: rgb(0, 0, 0); stroke-opacity: 1; fill: rgb(99, 110, 250); fill-opacity: 1;"/><text class="node-label" data-notex="1" x="0" y="0" text-anchor="start" transform="translate(23.25,4.449999999999999)" style="cursor: default; font-family: Arial; font-size: 12px; fill: rgb(42, 63, 95); fill-opacity: 1; text-shadow: rgb(255, 255, 255) 1px 1px 1px, rgb(255, 255, 255) -1px -1px 1px, rgb(255, 255, 255) 1px -1px 1px, rgb(255, 255, 255) -1px 1px 1px; white-space: pre;"></text></g></g></g><defs id="topdefs-42db8e"><g class="clips"/></defs><g class="layer-above"><g class="imagelayer"/><g class="shapelayer"/></g><g class="infolayer"><g class="g-gtitle"><text class="gtitle" x="60" y="50" text-anchor="start" dy="0em" style="opacity: 1; font-family: Arial; font-size: 18px; fill: rgb(42, 63, 95); fill-opacity: 1; white-space: pre;">Career Pathway Trends</text></g><g class="first-render"/></g></svg>