<svg class="main-svg" xmlns="http://www.w3.org/2000/svg" xmlns:xlink="http://www.w3.org/1999/xlink" width="700" height="500" style="" viewBox="0 0 700 500"><rect x="0" y="0" width="700" height="500" style="fill: rgb(255, 255, 255); fill-opacity: 1;"/><defs id="defs-4f2777"><g class="clips"><clipPath id="clip4f2777xyplot" class="plotclip"><rect width="540" height="292"/></clipPath><clipPath class="axesclip" id="clip4f2777x"><rect x="80" y="0" width="540" height="500"/></clipPath><clipPath class="axesclip" id="clip4f2777y"><rect x="0" y="100" width="700" height="292"/></clipPath><clipPath class="axesclip" id="clip4f2777xy"><rect x="80" y="100" width="540" height="292"/></clipPath></g><g class="gradients"/><g class="patterns"/></defs><g class="bglayer"><rect class="bg" x="80" y="100" width="540" height="292" style="fill: rgb(229, 236, 246); fill-opacity: 1; stroke-width: 0;"/></g><g class="layer-below"><g class="imagelayer"/><g class="shapelayer"/></g><g class="cartesianlayer"><g class="subplot xy"><g class="layer-subplot"><g class="shapelayer"/><g class="imagelayer"/></g><g class="minor-gridlayer"><g class="x"/><g class="y"/></g><g class="gridlayer"><g class="x"><path class="xgrid crisp" transform="translate(94.21000000000001,0)" d="M0,100v292" style="stroke: rgb(255, 255, 255); stroke-opacity: 1; stroke-width: 1px;"/><path class="xgrid crisp" transform="translate(108.42,0)" d="M0,100v292" style="stroke: rgb(255, 255, 255); stroke-opacity: 1; stroke-width: 1px;"/><path class="xgrid crisp" transform="translate(122.63,0)" d="M0,100v292" style="stroke: rgb(255, 255, 255); stroke-opacity: 1; stroke-width: 1px;"/><path class="xgrid crisp" transform="translate(136.84,0)" d="M0,100v292" style="stroke: rgb(255, 255, 255); stroke-opacity: 1; stroke-width: 1px;"/><path class="xgrid crisp" transform="translate(151.05,0)" d="M0,100v292" style="stroke: rgb(255, 255, 255); stroke-opacity: 1; stroke-width: 1px;"/><path class="xgrid crisp" transform="translate(165.26,0)" d="M0,100v292" style="stroke: rgb(255, 255, 255); stroke-opacity: 1; stroke-width: 1px;"/><path class="xgrid crisp" transform="translate(179.47,0)" d="M0,100v292" style="stroke: rgb(255, 255, 255); stroke-opacity: 1; stroke-width: 1px;"/><path class="xgrid crisp" transform="translate(193.68,0)" d="M0,100v292" style="stroke: rgb(255, 255, 255); stroke-opacity: 1; stroke-width: 1px;"/><path class="xgrid crisp" transform="translate(207.89,0)" d="M0,100v292" style="stroke: rgb(255, 255, 255); stroke-opacity: 1; stroke-width: 1px;"/><path class="xgrid crisp" transform="translate(222.11,0)" d="M0,100v292" style="stroke: rgb(255, 255, 255); stroke-opacity: 1; stroke-width: 1px;"/><path class="xgrid crisp" transform="translate(236.32,0)" d="M0,100v292" style="stroke: rgb(255, 255, 255); stroke-opacity: 1; stroke-width: 1px;"/><path class="xgrid crisp" transform="translate(250.53,0)" d="M0,100v292" style="stroke: rgb(255, 255, 255); stroke-opacity: 1; stroke-width: 1px;"/><path class="xgrid crisp" transform="translate(264.74,0)" d="M0,100v292" style="stroke: rgb(255, 255, 255); stroke-opacity: 1; stroke-width: 1px;"/><path class="xgrid crisp" transform="translate(278.95,0)" d="M0,100v292" style="stroke: rgb(255, 255, 255); stroke-opacity: 1; stroke-width: 1px;"/><path class="xgrid crisp" transform="translate(293.15999999999997,0)" d="M0,100v292" style="stroke: rgb(255, 255, 255); stroke-opacity: 1; stroke-width: 1px;"/><path class="xgrid crisp" transform="translate(307.37,0)" d="M0,100v292" style="stroke: rgb(255, 255, 255); stroke-opacity: 1; stroke-width: 1px;"/><path class="xgrid crisp" transform="translate(321.58000000000004,0)" d="M0,100v292" style="stroke: rgb(255, 255, 255); stroke-opacity: 1; stroke-width: 1px;"/><path class="xgrid crisp" transform="translate(335.78999999999996,0)" d="M0,100v292" style="stroke: rgb(255, 255, 255); stroke-opacity: 1; stroke-width: 1px;"/><path class="xgrid crisp" transform="translate(350,0)" d="M0,100v292" style="stroke: rgb(255, 255, 255); stroke-opacity: 1; stroke-width: 1px;"/><path class="xgrid crisp" transform="translate(364.21,0)" d="M0,100v292" style="stroke: rgb(255, 255, 255); stroke-opacity: 1; stroke-width: 1px;"/><path class="xgrid crisp" transform="translate(378.42,0)" d="M0,100v292" style="stroke: rgb(255, 255, 255); stroke-opacity: 1; stroke-width: 1px;"/><path class="xgrid crisp" transform="translate(392.63,0)" d="M0,100v292" style="stroke: rgb(255, 255, 255); stroke-opacity: 1; stroke-width: 1px;"/><path class="xgrid crisp" transform="translate(406.84,0)" d="M0,100v292" style="stroke: rgb(255, 255, 255); stroke-opacity: 1; stroke-width: 1px;"/><path class="xgrid crisp" transform="translate(421.05,0)" d="M0,100v292" style="stroke: rgb(255, 255, 255); stroke-opacity: 1; stroke-width: 1px;"/><path class="xgrid crisp" transform="translate(435.26,0)" d="M0,100v292" style="stroke: rgb(255, 255, 255); stroke-opacity: 1; stroke-width: 1px;"/><path class="xgrid crisp" transform="translate(449.47,0)" d="M0,100v292" style="stroke: rgb(255, 255, 255); stroke-opacity: 1; stroke-width: 1px;"/><path class="xgrid crisp" transform="translate(463.68,0)" d="M0,100v292" style="stroke: rgb(255, 255, 255); stroke-opacity: 1; stroke-width: 1px;"/><path class="xgrid crisp" transform="translate(477.89,0)" d="M0,100v292" style="stroke: rgb(255, 255, 255); stroke-opacity: 1; stroke-width: 1px;"/><path class="xgrid crisp" transform="translate(492.11,0)" d="M0,100v292" style="stroke: rgb(255, 255, 255); stroke-opacity: 1; stroke-width: 1px;"/><path class="xgrid crisp" transform="translate(506.32,0)" d="M0,100v292" style="stroke: rgb(255, 255, 255); stroke-opacity: 1; stroke-width: 1px;"/><path class="xgrid crisp" transform="translate(520.53,0)" d="M0,100v292" style="stroke: rgb(255, 255, 255); stroke-opacity: 1; stroke-width: 1px;"/><path class="xgrid crisp" transform="translate(534.74,0)" d="M0,100v292" style="stroke: rgb(255, 255, 255); stroke-opacity: 1; stroke-width: 1px;"/><path class="xgrid crisp" transform="translate(548.95,0)" d="M0,100v292" style="stroke: rgb(255, 255, 255); stroke-opacity: 1; stroke-width: 1px;"/><path class="xgrid crisp" transform="translate(563.1600000000001,0)" d="M0,100v292" style="stroke: rgb(255, 255, 255); stroke-opacity: 1; stroke-width: 1px;"/><path class="xgrid crisp" transform="translate(577.37,0)" d="M0,100v292" style="stroke: rgb(255, 255, 255); stroke-opacity: 1; stroke-width: 1px;"/><path class="xgrid crisp" transform="translate(591.5799999999999,0)" d="M0,100v292" style="stroke: rgb(255, 255, 255); stroke-opacity: 1; stroke-width: 1px;"/><path class="xgrid crisp" transform="translate(605.79,0)" d="M0,100v292" style="stroke: rgb(255, 255, 255); stroke-opacity: 1; stroke-width: 1px;"/></g><g class="y"><path class="ygrid crisp" transform="translate(0,331.9)" d="M80,0h540" style="stroke: rgb(255, 255, 255); stroke-opacity: 1; stroke-width: 1px;"/><path class="ygrid crisp" transform="translate(0,280.77)" d="M80,0h540" style="stroke: rgb(255, 255, 255); stroke-opacity: 1; stroke-width: 1px;"/><path class="ygrid crisp" transform="translate(0,229.64)" d="M80,0h540" style="stroke: rgb(255, 255, 255); stroke-opacity: 1; stroke-width: 1px;"/><path class="ygrid crisp" transform="translate(0,178.51)" d="M80,0h540" style="stroke: rgb(255, 255, 255); stroke-opacity: 1; stroke-width: 1px;"/><path class="ygrid crisp" transform="translate(0,127.38)" d="M80,0h540" style="stroke: rgb(255, 255, 255); stroke-opacity: 1; stroke-width: 1px;"/></g></g><g class="zerolinelayer"><path class="yzl zl crisp" transform="translate(0,383.02)" d="M80,0h540" style="stroke: rgb(255, 255, 255); stroke-opacity: 1; stroke-width: 2px;"/></g><g class="layer-between"><g class="shapelayer"/><g class="imagelayer"/></g><path class="xlines-below"/><path class="ylines-below"/><g class="overlines-below"/><g class="xaxislayer-below"/><g class="yaxislayer-below"/><g class="overaxes-below"/><g class="overplot"><g class="xy" transform="translate(80,100)" clip-path="url(#clip4f2777xyplot)"><g class="scatterlayer mlayer"><g class="trace scatter trace5dd4ad" style="stroke-miterlimit: 2; opacity: 1;"><g class="fills"/><g class="errorbars"/><g class="lines"><path class="js-line" d="M0,156.99L3.55,162.62L7.11,90.27L10.66,174.89L14.21,109.95L17.76,211.44L21.32,140.89L24.87,49.11L28.42,227.81L31.97,124.53L35.53,119.92L39.08,102.03L42.63,94.62L46.18,104.07L49.74,141.65L53.29,252.6L56.84,75.7L60.39,130.66L63.95,161.08L67.5,97.17L71.05,158.27L74.61,47.58L78.16,219.88L81.71,181.79L85.26,174.38L88.82,229.08L92.37,256.44L95.92,258.74L99.47,151.11L106.58,178.21L110.13,163.13L113.68,74.68L117.24,239.56L120.79,131.17L124.34,121.46L127.89,131.43L131.45,160.06" style="vector-effect: none; fill: none; stroke: rgb(99, 110, 250); stroke-opacity: 1; stroke-width: 2px; opacity: 1;"/><path class="js-line" d="M135,120.95L138.55,136.8L142.11,129.89L145.66,243.91L149.21,130.15L152.76,135.77L156.32,228.06L159.87,153.16L163.42,197.64L166.97,231.64L170.53,191.5L174.08,107.14L177.63,122.23L181.18,99.47L184.74,156.74L188.29,92.83L191.84,153.16L195.39,258.99L198.95,180.26L202.5,167.22L206.05,117.62L209.61,258.99L213.16,166.71L216.71,151.37L220.26,239.82L223.82,94.62L227.37,130.15L230.92,227.81L234.47,105.61L238.03,106.63L241.58,220.9L245.13,119.67L248.68,98.96L252.24,188.69L255.79,184.35L259.34,187.16L262.89,165.43L266.45,156.74L270,142.17L273.55,269.22L277.11,228.32L280.66,116.86L284.21,46.81L287.76,109.44L291.32,226.27L294.87,166.2L298.42,252.35L301.97,219.11L305.53,171.31L309.08,248.26L312.63,165.17L316.18,125.55L319.74,251.84L323.29,116.35L326.84,251.32L330.39,147.02L333.95,136.54L337.5,151.11L341.05,206.08L344.61,146.77L348.16,137.82L351.71,161.85L355.26,241.61L358.82,76.21L362.37,237.01L365.92,206.33L369.47,227.29L373.03,174.89L376.58,213.23L383.68,150.6L387.24,156.99L390.79,142.42L394.34,121.46L397.89,151.37L401.45,209.4L405,159.29L408.55,129.89L412.11,150.86L415.66,209.4L419.21,183.07L422.76,173.61L426.32,107.91L429.87,160.32L433.42,108.68L436.97,175.91L440.53,230.36L444.08,140.63L447.63,230.36L451.18,85.41L454.74,156.48L458.29,248.26L461.84,154.44L465.39,107.14L468.95,246.47L472.5,60.1L476.05,144.98L479.61,14.6L483.16,211.96L486.71,105.86L490.26,118.14L493.82,265.13L497.37,174.12L500.92,39.14L504.47,124.78L508.03,102.03L511.58,171.82L515.13,165.68L518.68,129.13L522.24,255.16L525.79,140.89L529.34,221.41L532.89,153.67L536.45,159.29L540,242.38" style="vector-effect: none; fill: none; stroke: rgb(99, 110, 250); stroke-opacity: 1; stroke-width: 2px; opacity: 1;"/></g><g class="points"/><g class="text"/></g></g></g></g><path class="xlines-above crisp" d="M0,0" style="fill: none;"/><path class="ylines-above crisp" d="M0,0" style="fill: none;"/><g class="overlines-above"/><g class="xaxislayer-above"><g class="xtick"><text text-anchor="start" x="0" y="405" transform="translate(80,0) rotate(90,0,399)" style="font-family: Arial; font-size: 12px; fill: rgb(42, 63, 95); fill-opacity: 1; white-space: pre; opacity: 1;">8/6/2024</text></g><g class="xtick"><text text-anchor="start" x="0" y="405" transform="translate(94.21000000000001,0) rotate(90,0,399)" style="font-family: Arial; font-size: 12px; fill: rgb(42, 63, 95); fill-opacity: 1; white-space: pre; opacity: 1;">9/12/2024</text></g><g class="xtick"><text text-anchor="start" x="0" y="405" transform="translate(108.42,0) rotate(90,0,399)" style="font-family: Arial; font-size: 12px; fill: rgb(42, 63, 95); fill-opacity: 1; white-space: pre; opacity: 1;">6/15/2024</text></g><g class="xtick"><text text-anchor="start" x="0" y="405" transform="translate(122.63,0) rotate(90,0,399)" style="font-family: Arial; font-size: 12px; fill: rgb(42, 63, 95); fill-opacity: 1; white-space: pre; opacity: 1;">6/26/2024</text></g><g class="xtick"><text text-anchor="start" x="0" y="405" transform="translate(136.84,0) rotate(90,0,399)" style="font-family: Arial; font-size: 12px; fill: rgb(42, 63, 95); fill-opacity: 1; white-space: pre; opacity: 1;">8/21/2024</text></g><g class="xtick"><text text-anchor="start" x="0" y="405" transform="translate(151.05,0) rotate(90,0,399)" style="font-family: Arial; font-size: 12px; fill: rgb(42, 63, 95); fill-opacity: 1; white-space: pre; opacity: 1;">7/18/2024</text></g><g class="xtick"><text text-anchor="start" x="0" y="405" transform="translate(165.26,0) rotate(90,0,399)" style="font-family: Arial; font-size: 12px; fill: rgb(42, 63, 95); fill-opacity: 1; white-space: pre; opacity: 1;">7/22/2024</text></g><g class="xtick"><text text-anchor="start" x="0" y="405" transform="translate(179.47,0) rotate(90,0,399)" style="font-family: Arial; font-size: 12px; fill: rgb(42, 63, 95); fill-opacity: 1; white-space: pre; opacity: 1;">5/7/2024</text></g><g class="xtick"><text text-anchor="start" x="0" y="405" transform="translate(193.68,0) rotate(90,0,399)" style="font-family: Arial; font-size: 12px; fill: rgb(42, 63, 95); fill-opacity: 1; white-space: pre; opacity: 1;">9/4/2024</text></g><g class="xtick"><text text-anchor="start" x="0" y="405" transform="translate(207.89,0) rotate(90,0,399)" style="font-family: Arial; font-size: 12px; fill: rgb(42, 63, 95); fill-opacity: 1; white-space: pre; opacity: 1;">9/13/2024</text></g><g class="xtick"><text text-anchor="start" x="0" y="405" transform="translate(222.11,0) rotate(90,0,399)" style="font-family: Arial; font-size: 12px; fill: rgb(42, 63, 95); fill-opacity: 1; white-space: pre; opacity: 1;">5/10/2024</text></g><g class="xtick"><text text-anchor="start" x="0" y="405" transform="translate(236.32,0) rotate(90,0,399)" style="font-family: Arial; font-size: 12px; fill: rgb(42, 63, 95); fill-opacity: 1; white-space: pre; opacity: 1;">6/29/2024</text></g><g class="xtick"><text text-anchor="start" x="0" y="405" transform="translate(250.53,0) rotate(90,0,399)" style="font-family: Arial; font-size: 12px; fill: rgb(42, 63, 95); fill-opacity: 1; white-space: pre; opacity: 1;">8/26/2024</text></g><g class="xtick"><text text-anchor="start" x="0" y="405" transform="translate(264.74,0) rotate(90,0,399)" style="font-family: Arial; font-size: 12px; fill: rgb(42, 63, 95); fill-opacity: 1; white-space: pre; opacity: 1;">6/20/2024</text></g><g class="xtick"><text text-anchor="start" x="0" y="405" transform="translate(278.95,0) rotate(90,0,399)" style="font-family: Arial; font-size: 12px; fill: rgb(42, 63, 95); fill-opacity: 1; white-space: pre; opacity: 1;">7/15/2024</text></g><g class="xtick"><text text-anchor="start" x="0" y="405" transform="translate(293.15999999999997,0) rotate(90,0,399)" style="font-family: Arial; font-size: 12px; fill: rgb(42, 63, 95); fill-opacity: 1; white-space: pre; opacity: 1;">5/23/2024</text></g><g class="xtick"><text text-anchor="start" x="0" y="405" transform="translate(307.37,0) rotate(90,0,399)" style="font-family: Arial; font-size: 12px; fill: rgb(42, 63, 95); fill-opacity: 1; white-space: pre; opacity: 1;">6/6/2024</text></g><g class="xtick"><text text-anchor="start" x="0" y="405" transform="translate(321.58000000000004,0) rotate(90,0,399)" style="font-family: Arial; font-size: 12px; fill: rgb(42, 63, 95); fill-opacity: 1; white-space: pre; opacity: 1;">8/31/2024</text></g><g class="xtick"><text text-anchor="start" x="0" y="405" transform="translate(335.78999999999996,0) rotate(90,0,399)" style="font-family: Arial; font-size: 12px; fill: rgb(42, 63, 95); fill-opacity: 1; white-space: pre; opacity: 1;">5/14/2024</text></g><g class="xtick"><text text-anchor="start" x="0" y="405" transform="translate(350,0) rotate(90,0,399)" style="font-family: Arial; font-size: 12px; fill: rgb(42, 63, 95); fill-opacity: 1; white-space: pre; opacity: 1;">6/1/2024</text></g><g class="xtick"><text text-anchor="start" x="0" y="405" transform="translate(364.21,0) rotate(90,0,399)" style="font-family: Arial; font-size: 12px; fill: rgb(42, 63, 95); fill-opacity: 1; white-space: pre; opacity: 1;">9/26/2024</text></g><g class="xtick"><text text-anchor="start" x="0" y="405" transform="translate(378.42,0) rotate(90,0,399)" style="font-family: Arial; font-size: 12px; fill: rgb(42, 63, 95); fill-opacity: 1; white-space: pre; opacity: 1;">7/28/2024</text></g><g class="xtick"><text text-anchor="start" x="0" y="405" transform="translate(392.63,0) rotate(90,0,399)" style="font-family: Arial; font-size: 12px; fill: rgb(42, 63, 95); fill-opacity: 1; white-space: pre; opacity: 1;">9/29/2024</text></g><g class="xtick"><text text-anchor="start" x="0" y="405" transform="translate(406.84,0) rotate(90,0,399)" style="font-family: Arial; font-size: 12px; fill: rgb(42, 63, 95); fill-opacity: 1; white-space: pre; opacity: 1;">9/15/2024</text></g><g class="xtick"><text text-anchor="start" x="0" y="405" transform="translate(421.05,0) rotate(90,0,399)" style="font-family: Arial; font-size: 12px; fill: rgb(42, 63, 95); fill-opacity: 1; white-space: pre; opacity: 1;">6/3/2024</text></g><g class="xtick"><text text-anchor="start" x="0" y="405" transform="translate(435.26,0) rotate(90,0,399)" style="font-family: Arial; font-size: 12px; fill: rgb(42, 63, 95); fill-opacity: 1; white-space: pre; opacity: 1;">7/4/2024</text></g><g class="xtick"><text text-anchor="start" x="0" y="405" transform="translate(449.47,0) rotate(90,0,399)" style="font-family: Arial; font-size: 12px; fill: rgb(42, 63, 95); fill-opacity: 1; white-space: pre; opacity: 1;">9/22/2024</text></g><g class="xtick"><text text-anchor="start" x="0" y="405" transform="translate(463.68,0) rotate(90,0,399)" style="font-family: Arial; font-size: 12px; fill: rgb(42, 63, 95); fill-opacity: 1; white-space: pre; opacity: 1;">9/23/2024</text></g><g class="xtick"><text text-anchor="start" x="0" y="405" transform="translate(477.89,0) rotate(90,0,399)" style="font-family: Arial; font-size: 12px; fill: rgb(42, 63, 95); fill-opacity: 1; white-space: pre; opacity: 1;">9/3/2024</text></g><g class="xtick"><text text-anchor="start" x="0" y="405" transform="translate(492.11,0) rotate(90,0,399)" style="font-family: Arial; font-size: 12px; fill: rgb(42, 63, 95); fill-opacity: 1; white-space: pre; opacity: 1;">5/30/2024</text></g><g class="xtick"><text text-anchor="start" x="0" y="405" transform="translate(506.32,0) rotate(90,0,399)" style="font-family: Arial; font-size: 12px; fill: rgb(42, 63, 95); fill-opacity: 1; white-space: pre; opacity: 1;">6/14/2024</text></g><g class="xtick"><text text-anchor="start" x="0" y="405" transform="translate(520.53,0) rotate(90,0,399)" style="font-family: Arial; font-size: 12px; fill: rgb(42, 63, 95); fill-opacity: 1; white-space: pre; opacity: 1;">9/14/2024</text></g><g class="xtick"><text text-anchor="start" x="0" y="405" transform="translate(534.74,0) rotate(90,0,399)" style="font-family: Arial; font-size: 12px; fill: rgb(42, 63, 95); fill-opacity: 1; white-space: pre; opacity: 1;">7/26/2024</text></g><g class="xtick"><text text-anchor="start" x="0" y="405" transform="translate(548.95,0) rotate(90,0,399)" style="font-family: Arial; font-size: 12px; fill: rgb(42, 63, 95); fill-opacity: 1; white-space: pre; opacity: 1;">7/6/2024</text></g><g class="xtick"><text text-anchor="start" x="0" y="405" transform="translate(563.1600000000001,0) rotate(90,0,399)" style="font-family: Arial; font-size: 12px; fill: rgb(42, 63, 95); fill-opacity: 1; white-space: pre; opacity: 1;">8/24/2024</text></g><g class="xtick"><text text-anchor="start" x="0" y="405" transform="translate(577.37,0) rotate(90,0,399)" style="font-family: Arial; font-size: 12px; fill: rgb(42, 63, 95); fill-opacity: 1; white-space: pre; opacity: 1;">7/8/2024</text></g><g class="xtick"><text text-anchor="start" x="0" y="405" transform="translate(591.5799999999999,0) rotate(90,0,399)" style="font-family: Arial; font-size: 12px; fill: rgb(42, 63, 95); fill-opacity: 1; white-space: pre; opacity: 1;">6/19/2024</text></g><g class="xtick"><text text-anchor="start" x="0" y="405" transform="translate(605.79,0) rotate(90,0,399)" style="font-family: Arial; font-size: 12px; fill: rgb(42, 63, 95); fill-opacity: 1; white-space: pre; opacity: 1;">7/3/2024</text></g><g class="xtick"><text text-anchor="start" x="0" y="405" transform="translate(620,0) rotate(90,0,399)" style="font-family: Arial; font-size: 12px; fill: rgb(42, 63, 95); fill-opacity: 1; white-space: pre; opacity: 1;">5/5/2024</text></g></g><g class="yaxislayer-above"><g class="ytick"><text text-anchor="end" x="79" y="4.199999999999999" transform="translate(0,383.02)" style="font-family: Arial; font-size: 12px; fill: rgb(42, 63, 95); fill-opacity: 1; white-space: pre; opacity: 1;">0</text></g><g class="ytick"><text text-anchor="end" x="79" y="4.199999999999999" style="font-family: Arial; font-size: 12px; fill: rgb(42, 63, 95); fill-opacity: 1; white-space: pre; opacity: 1;" transform="translate(0,331.9)">200</text></g><g class="ytick"><text text-anchor="end" x="79" y="4.199999999999999" style="font-family: Arial; font-size: 12px; fill: rgb(42, 63, 95); fill-opacity: 1; white-space: pre; opacity: 1;" transform="translate(0,280.77)">400</text></g><g class="ytick"><text text-anchor="end" x="79" y="4.199999999999999" style="font-family: Arial; font-size: 12px; fill: rgb(42, 63, 95); fill-opacity: 1; white-space: pre; opacity: 1;" transform="translate(0,229.64)">600</text></g><g class="ytick"><text text-anchor="end" x="79" y="4.199999999999999" style="font-family: Arial; font-size: 12px; fill: rgb(42, 63, 95); fill-opacity: 1; white-space: pre; opacity: 1;" transform="translate(0,178.51)">800</text></g><g class="ytick"><text text-anchor="end" x="79" y="4.199999999999999" style="font-family: Arial; font-size: 12px; fill: rgb(42, 63, 95); fill-opacity: 1; white-space: pre; opacity: 1;" transform="translate(0,127.38)">1000</text></g></g><g class="overaxes-above"/></g></g><g class="polarlayer"/><g class="smithlayer"/><g class="ternarylayer"/><g class="geolayer"/><g class="funnelarealayer"/><g class="pielayer"/><g class="iciclelayer"/><g class="treemaplayer"/><g class="sunburstlayer"/><g class="glimages"/><defs id="topdefs-4f2777"><g class="clips"/></defs><g class="layer-above"><g class="imagelayer"/><g class="shapelayer"/></g><g class="infolayer"><g class="g-gtitle"><text class="gtitle" x="35" y="50" text-anchor="start" dy="0em" style="opacity: 1; font-family: Arial; font-size: 16px; fill: rgb(42, 63, 95); fill-opacity: 1; white-space: pre;">Job Posting Trends Over Time</text></g><g class="g-xtitle"><text class="xtitle" x="350" y="487.3" text-anchor="middle" style="opacity: 1; font-family: Arial; font-size: 14px; fill: rgb(42, 63, 95); fill-opacity: 1; white-space: pre;">POSTED</text></g><g class="g-ytitle"><text class="ytitle" transform="rotate(-90,27.6,246)" x="27.6" y="246" text-anchor="middle" style="opacity: 1; font-family: Arial; font-size: 14px; fill: rgb(42, 63, 95); fill-opacity: 1; white-space: pre;">count</text></g></g></svg>